<?xml version="1.0" standalone="no"?><!DOCTYPE svg PUBLIC "-//W3C//DTD SVG 1.1//EN" "http://www.w3.org/Graphics/SVG/1.1/DTD/svg11.dtd"><svg t="1711810759202" class="icon" viewBox="0 0 1024 1024" version="1.1" xmlns="http://www.w3.org/2000/svg" p-id="1590" xmlns:xlink="http://www.w3.org/1999/xlink" width="200" height="200"><path d="M643.900952 326.948571c0 53.638095-43.885714 97.52381-97.523809 97.52381h-292.571429c-53.638095 0-97.52381-43.885714-97.523809-97.52381s43.885714-97.52381 97.523809-97.523809h292.571429c53.638095 0 97.52381 43.885714 97.523809 97.523809z" fill="#1296db" p-id="1591"></path><path d="M657.798095 764.830476H158.47619a60.952381 60.952381 0 0 1-60.95238-60.952381V224.792381a60.952381 60.952381 0 0 1 60.95238-60.952381h707.04762a60.952381 60.952381 0 0 1 60.95238 60.952381V524.190476c0 6.826667-5.36381 12.190476-12.190476 12.190476s-12.190476-5.36381-12.190476-12.190476V224.792381c0-20.23619-16.335238-36.571429-36.571428-36.571429h-707.04762c-20.23619 0-36.571429 16.579048-36.571428 36.571429v478.841905c0 20.23619 16.335238 36.571429 36.571428 36.571428h499.321905c6.826667 0 12.190476 5.36381 12.190476 12.190476s-5.607619 12.434286-12.190476 12.434286z" p-id="1592" fill="#1296db"></path><path d="M657.798095 663.893333H109.714286c-6.826667 0-12.190476-5.36381-12.190476-12.190476s5.36381-12.190476 12.190476-12.190476h548.083809c6.826667 0 12.190476 5.36381 12.190476 12.190476s-5.607619 12.190476-12.190476 12.190476zM652.434286 908.921905h-265.752381c-6.826667 0-12.190476-5.36381-12.190476-12.190476s5.36381-12.190476 12.190476-12.190477c2.681905 0 66.31619-3.169524 66.31619-131.900952 0-6.826667 5.36381-12.190476 12.190476-12.190476h108.495239c6.826667 0 12.190476 5.36381 12.190476 12.190476 0 128.731429 63.634286 131.900952 66.56 131.900952a12.190476 12.190476 0 0 1 0 24.380953c0.24381 0 0.24381 0 0 0 0-0.24381 0-0.24381 0 0z m-214.552381-24.380953h163.352381c-19.504762-19.748571-37.302857-55.344762-39.497143-119.710476h-84.601905c-1.950476 64.365714-19.748571 99.961905-39.253333 119.710476z" p-id="1593" fill="#1296db"></path><path d="M543.939048 861.135238h-48.761905c-6.826667 0-12.190476-5.36381-12.190476-12.190476s5.36381-12.190476 12.190476-12.190476h48.761905c6.826667 0 12.190476 5.36381 12.190476 12.190476s-5.36381 12.190476-12.190476 12.190476zM260.388571 374.00381c-2.925714 0-5.851429-0.975238-8.289523-3.169524l-28.769524-26.819048c-4.87619-4.632381-5.36381-12.190476-0.731429-17.310476s12.190476-5.12 17.310476-0.731429l20.72381 19.017143 35.108571-32.426666c4.87619-4.632381 12.678095-4.388571 17.310477 0.731428 4.632381 4.87619 4.388571 12.678095-0.731429 17.310476l-43.398095 39.984762c-2.681905 2.438095-5.607619 3.413333-8.533334 3.413334zM260.388571 525.653333c-2.925714 0-5.851429-0.975238-8.289523-3.169523l-28.769524-26.819048c-4.87619-4.632381-5.36381-12.190476-0.731429-17.310476s12.190476-5.12 17.310476-0.731429l20.72381 19.017143 35.108571-32.426667c4.87619-4.632381 12.678095-4.388571 17.310477 0.731429 4.632381 4.87619 4.388571 12.678095-0.731429 17.310476l-43.398095 39.984762c-2.681905 2.438095-5.607619 3.413333-8.533334 3.413333zM701.19619 542.232381H397.653333c-6.826667 0-12.190476-5.36381-12.190476-12.190476v-73.142857c0-6.826667 5.36381-12.190476 12.190476-12.190477h387.169524c6.826667 0 12.190476 5.36381 12.190476 12.190477v29.013333c0 6.826667-5.36381 12.190476-12.190476 12.190476s-12.190476-5.36381-12.190476-12.190476v-16.822857H409.84381v48.761905h291.59619c6.826667 0 12.190476 5.36381 12.190476 12.190476s-5.607619 12.190476-12.434286 12.190476zM784.822857 390.582857H397.653333c-6.826667 0-12.190476-5.36381-12.190476-12.190476v-73.142857c0-6.826667 5.36381-12.190476 12.190476-12.190476h387.169524c6.826667 0 12.190476 5.36381 12.190476 12.190476v73.142857c0 6.582857-5.607619 12.190476-12.190476 12.190476z m-374.979047-24.380952h362.788571v-48.761905H409.84381v48.761905zM810.422857 908.921905c-63.878095 0-116.053333-51.931429-116.053333-116.053334V636.342857c0-63.878095 51.931429-116.053333 116.053333-116.053333S926.47619 572.464762 926.47619 636.342857v156.525714c0 63.878095-51.931429 116.053333-116.053333 116.053334z m0-364.007619c-50.468571 0-91.672381 41.20381-91.672381 91.672381v156.525714c0 50.468571 41.20381 91.672381 91.672381 91.672381S902.095238 843.337143 902.095238 792.868571V636.342857a91.672381 91.672381 0 0 0-91.672381-91.428571z" p-id="1594" fill="#1296db"></path><path d="M812.373333 648.777143c-6.826667 0-12.190476-5.36381-12.190476-12.190476v-36.571429c0-6.826667 5.36381-12.190476 12.190476-12.190476s12.190476 5.36381 12.190477 12.190476v36.571429c0 6.826667-5.607619 12.190476-12.190477 12.190476z" p-id="1595" fill="#1296db"></path><path d="M810.422857 726.79619c-25.84381 0-50.224762-12.678095-65.340952-33.645714a12.361143 12.361143 0 0 1 2.681905-17.066666c5.36381-3.900952 13.165714-2.681905 17.066666 2.681904a56.246857 56.246857 0 0 0 92.16-1.219047c3.657143-5.607619 11.459048-7.070476 16.822857-3.169524 5.607619 3.657143 7.070476 11.215238 3.169524 16.822857a79.481905 79.481905 0 0 1-66.56 35.59619z" p-id="1596" fill="#1296db"></path></svg>